<svg width="42" height="42" viewBox="0 0 42 42" fill="none" xmlns="http://www.w3.org/2000/svg">
<path d="M0 20.9384C0 9.44557 9.42226 0.0233076 20.9616 4.278e-05C32.4312 -0.0232221 41.9 9.44557 41.9 20.9617C41.9 32.4778 32.4777 41.9 20.9616 41.9C9.44553 41.8768 0 32.4545 0 20.9384ZM20.8686 39.085C30.8492 39.1083 39.0384 31.0121 39.0849 21.0315C39.1315 11.0974 30.9422 2.86162 20.9849 2.83835C11.0275 2.81509 2.83831 11.0043 2.83831 20.9617C2.83831 30.8958 10.9577 39.0617 20.8686 39.085Z" fill="#009EED"/>
<path d="M21.171 25.7775C22.1016 22.8694 22.9159 20.2637 23.7302 17.6581C24.3118 15.8202 24.8934 13.9822 25.475 12.121C25.7077 11.3766 26.0567 10.5856 26.9175 10.7717C27.4526 10.888 28.0807 11.5162 28.3134 12.0513C29.2905 14.4941 30.1513 16.9834 30.9888 19.4727C31.2447 20.2172 31.5937 20.5197 32.408 20.4499C33.1757 20.3801 33.9667 20.4266 34.7345 20.4499C35.5022 20.4731 35.9908 20.9384 35.9908 21.6829C35.9908 22.4739 35.5487 23.009 34.7112 23.0323C33.2455 23.0555 31.7566 23.1253 30.2909 22.9857C29.8256 22.9392 29.244 22.3576 29.0346 21.869C28.3134 20.1707 27.7317 18.4258 26.9873 16.332C26.522 17.7744 26.1497 18.8911 25.8008 20.0078C24.8004 23.1486 23.8232 26.2661 22.8461 29.4301C22.6135 30.1746 22.3808 30.8493 21.4735 30.9423C20.4731 31.0354 20.1707 30.2909 19.845 29.5697C18.5189 26.5453 17.1695 23.4976 15.8201 20.4731C15.634 20.0544 15.4246 19.6589 15.1454 19.0772C14.4242 20.1474 13.7263 21.078 13.1447 22.0551C12.6328 22.8927 11.9814 23.1951 11.0276 23.1486C9.74801 23.0788 8.46844 23.1253 7.18887 23.1253C6.28154 23.1253 5.63013 22.7298 5.63013 21.776C5.63013 20.8454 6.25828 20.4266 7.18887 20.4499C7.35173 20.4499 7.51458 20.4033 7.65417 20.4499C10.19 21.0082 11.8186 19.9148 12.8422 17.6348C13.1679 16.9369 13.6565 16.332 14.1218 15.6806C14.9826 14.4475 16.1458 14.5406 16.774 15.9132C18.0303 18.705 19.2633 21.4968 20.4964 24.2886C20.6825 24.6841 20.8686 25.0796 21.171 25.7775Z" fill="#009EED"/>
</svg>
